<svg xmlns="http://www.w3.org/2000/svg" viewBox="0 0 320 96" width="320" height="96">
  <defs>
    <!-- Vibrant purple radial background for badge -->
    <radialGradient id="bg" cx="36%" cy="28%" r="78%">
      <stop offset="0%" stop-color="#7c3aed"/>
      <stop offset="55%" stop-color="#5b21b6"/>
      <stop offset="100%" stop-color="#2e1065"/>
    </radialGradient>

    <!-- L stroke: white → soft lavender -->
    <linearGradient id="lGrad" x1="0%" y1="0%" x2="100%" y2="100%">
      <stop offset="0%" stop-color="#ffffff"/>
      <stop offset="100%" stop-color="#ddd6fe"/>
    </linearGradient>

    <!-- Outer ring gradient for badge -->
    <linearGradient id="ring" x1="0%" y1="0%" x2="100%" y2="100%">
      <stop offset="0%" stop-color="#a78bfa" stop-opacity="0.9"/>
      <stop offset="50%" stop-color="#7c3aed" stop-opacity="0.5"/>
      <stop offset="100%" stop-color="#c084fc" stop-opacity="0.7"/>
    </linearGradient>

    <!-- Wordmark gradient -->
    <linearGradient id="wordmark" x1="0%" y1="0%" x2="100%" y2="0%">
      <stop offset="0%"   stop-color="#ffffff"/>
      <stop offset="100%" stop-color="#ddd6fe"/>
    </linearGradient>

    <!-- Sparkle gradient -->
    <linearGradient id="sparkGrad" x1="0%" y1="0%" x2="100%" y2="100%">
      <stop offset="0%" stop-color="#ffffff"/>
      <stop offset="100%" stop-color="#c4b5fd"/>
    </linearGradient>

    <!-- Badge drop shadow -->
    <filter id="shadow" x="-20%" y="-20%" width="140%" height="140%">
      <feDropShadow dx="0" dy="4" stdDeviation="10" flood-color="#4c1d95" flood-opacity="0.65"/>
    </filter>

    <!-- Glow for L -->
    <filter id="lGlow" x="-25%" y="-20%" width="150%" height="140%">
      <feGaussianBlur stdDeviation="2.8" result="blur"/>
      <feMerge>
        <feMergeNode in="blur"/>
        <feMergeNode in="SourceGraphic"/>
      </feMerge>
    </filter>

    <!-- Glow for star -->
    <filter id="starGlow" x="-100%" y="-100%" width="300%" height="300%">
      <feGaussianBlur stdDeviation="3" result="blur"/>
      <feMerge>
        <feMergeNode in="blur"/>
        <feMergeNode in="SourceGraphic"/>
      </feMerge>
    </filter>

    <!-- Text glow -->
    <filter id="textGlow" x="-10%" y="-20%" width="120%" height="140%">
      <feDropShadow dx="0" dy="1" stdDeviation="5" flood-color="#9333ea" flood-opacity="0.4"/>
    </filter>

    <!-- Clip for badge inner highlight -->
    <clipPath id="clip">
      <rect x="3" y="3" width="90" height="90" rx="22"/>
    </clipPath>
  </defs>

  <!-- ═══ BADGE ═══ -->
  <rect x="3" y="3" width="90" height="90" rx="22" fill="url(#bg)" filter="url(#shadow)"/>
  <!-- Top glass sheen -->
  <rect x="3" y="3" width="90" height="48" rx="22" fill="white" opacity="0.06" clip-path="url(#clip)"/>
  <!-- Bottom vignette -->
  <ellipse cx="48" cy="88" rx="36" ry="12" fill="black" opacity="0.22" clip-path="url(#clip)"/>
  <!-- Border ring -->
  <rect x="3" y="3" width="90" height="90" rx="22" fill="none" stroke="url(#ring)" stroke-width="1.3"/>

  <!-- ── Letter "L" ── -->
  <path d="M30,17 L30,67 L64,67"
        stroke="url(#lGrad)"
        stroke-width="11"
        stroke-linecap="round"
        stroke-linejoin="round"
        fill="none"
        filter="url(#lGlow)"/>

  <!-- ── 4-Pointed Star at tip of L ── -->
  <path d="M30,17 L32.6,24 L30,31 L27.4,24 Z" fill="url(#sparkGrad)" filter="url(#starGlow)"/>
  <path d="M23,24 L30,21.4 L37,24 L30,26.6 Z" fill="url(#sparkGrad)" filter="url(#starGlow)"/>
  <circle cx="30" cy="24" r="3.2" fill="white" filter="url(#starGlow)"/>

  <!-- Small secondary sparkle near foot of L -->
  <path d="M65,58 L66.5,62.5 L65,67 L63.5,62.5 Z" fill="white" opacity="0.55" filter="url(#starGlow)"/>
  <path d="M60.5,62.5 L65,61 L69.5,62.5 L65,64 Z" fill="white" opacity="0.55" filter="url(#starGlow)"/>

  <!-- Ambient dots -->
  <circle cx="70" cy="20" r="1.8" fill="#ddd6fe" opacity="0.7"/>
  <circle cx="60" cy="28" r="1.1" fill="white" opacity="0.4"/>

  <!-- ═══ SEPARATOR LINE ═══ -->
  <line x1="108" y1="18" x2="108" y2="78" stroke="#7c3aed" stroke-width="1" opacity="0.4"/>

  <!-- ═══ WORDMARK ═══ -->
  <text
    x="122" y="55"
    font-family="'Segoe UI', 'Helvetica Neue', Arial, sans-serif"
    font-size="38"
    font-weight="800"
    letter-spacing="-0.5"
    fill="url(#wordmark)"
    filter="url(#textGlow)"
  >Lumi</text>

  <!-- Tagline -->
  <text
    x="124" y="72"
    font-family="'Segoe UI', 'Helvetica Neue', Arial, sans-serif"
    font-size="9"
    font-weight="500"
    letter-spacing="3.5"
    fill="#a78bfa"
    opacity="0.85"
  >ASSISTENTE VIRTUAL</text>
</svg>
